<svg xmlns="http://www.w3.org/2000/svg" data-name="Solid" viewBox="0 0 64 80" >
    <title>1</title>
    <path
        d="M4.5,27.335a1.50007,1.50007,0,0,0,1.5-1.5V15.0459H16.79932a1.5,1.5,0,0,0,0-3H4.5a1.50007,1.50007,0,0,0-1.5,1.5V25.835A1.50007,1.50007,0,0,0,4.5,27.335Z" />
    <path
        d="M59.5,36.665a1.50039,1.50039,0,0,0-1.5,1.5V48.9541H47.20117a1.5,1.5,0,0,0,0,3H59.5a1.50038,1.50038,0,0,0,1.5-1.5V38.165A1.50038,1.50038,0,0,0,59.5,36.665Z" />
    <path
        d="M3,50.4541a1.50007,1.50007,0,0,0,1.5,1.5H16.79932a1.5,1.5,0,1,0,0-3H6V38.165a1.5,1.5,0,0,0-3,0Z" />
    <path
        d="M59.5,12.0459H47.20117a1.5,1.5,0,0,0,0,3H58V25.835a1.5,1.5,0,0,0,3,0V13.5459A1.50038,1.50038,0,0,0,59.5,12.0459Z" />
    <rect x="10.87" y="19.20001" width="42.26001" height="25.59998" rx="1.5" />
</svg>